<svg width="500" height="500" viewBox="0 0 500 500" fill="none" xmlns="http://www.w3.org/2000/svg">
<path d="M450 450C450 477.75 427.75 500 400 500C386.739 500 374.021 494.732 364.645 485.355C355.268 475.979 350 463.261 350 450C350 422.25 372.25 400 400 400C413.261 400 425.979 405.268 435.355 414.645C444.732 424.021 450 436.739 450 450ZM150 400C122.25 400 100 422.25 100 450C100 463.261 105.268 475.979 114.645 485.355C124.021 494.732 136.739 500 150 500C177.75 500 200 477.75 200 450C200 422.25 177.75 400 150 400ZM155 315.75L154.25 318.75C154.25 322.25 157 325 160.5 325H450V375H150C136.739 375 124.021 369.732 114.645 360.355C105.268 350.979 100 338.261 100 325C100 316.25 102.25 308 106 301L140 239.75L50 50H0V0H81.75L105.25 50H475C488.75 50 500 61.25 500 75C500 79.25 498.75 83.5 497 87.5L407.5 249.25C399 264.5 382.5 275 363.75 275H177.5L155 315.75ZM187.5 225H225V175H164L187.5 225ZM250 175V225H325V175H250ZM325 150V100H250V150H325ZM402.75 175H350V225H375L402.75 175ZM444.5 100H350V150H416.75L444.5 100ZM128.5 100L152 150H225V100H128.5Z" fill="black"/>
</svg>
