<svg width="25" height="25" viewBox="0 0 25 25" fill="none" xmlns="http://www.w3.org/2000/svg">
<path d="M22.5 22.5C22.5 23.8875 21.3875 25 20 25C19.337 25 18.7011 24.7366 18.2322 24.2678C17.7634 23.7989 17.5 23.163 17.5 22.5C17.5 21.1125 18.6125 20 20 20C20.663 20 21.2989 20.2634 21.7678 20.7322C22.2366 21.2011 22.5 21.837 22.5 22.5ZM7.5 20C6.1125 20 5 21.1125 5 22.5C5 23.163 5.26339 23.7989 5.73223 24.2678C6.20107 24.7366 6.83696 25 7.5 25C8.8875 25 10 23.8875 10 22.5C10 21.1125 8.8875 20 7.5 20ZM7.75 15.7875L7.7125 15.9375C7.7125 16.1125 7.85 16.25 8.025 16.25H22.5V18.75H7.5C6.83696 18.75 6.20107 18.4866 5.73223 18.0178C5.26339 17.5489 5 16.913 5 16.25C5 15.8125 5.1125 15.4 5.3 15.05L7 11.9875L2.5 2.5H0V0H4.0875L5.2625 2.5H23.75C24.4375 2.5 25 3.0625 25 3.75C25 3.9625 24.9375 4.175 24.85 4.375L20.375 12.4625C19.95 13.225 19.125 13.75 18.1875 13.75H8.875L7.75 15.7875ZM9.375 11.25H11.25V8.75H8.2L9.375 11.25ZM12.5 8.75V11.25H16.25V8.75H12.5ZM16.25 7.5V5H12.5V7.5H16.25ZM20.1375 8.75H17.5V11.25H18.75L20.1375 8.75ZM22.225 5H17.5V7.5H20.8375L22.225 5ZM6.425 5L7.6 7.5H11.25V5H6.425Z" fill="black"/>
</svg>
