<svg width="500" height="500" viewBox="0 0 500 500" fill="none" xmlns="http://www.w3.org/2000/svg">
<path d="M444.092 421.875L499.268 477.295L477.295 499.268L421.875 444.092L366.455 499.512L344.482 477.295L399.902 421.875L344.482 366.455L366.455 344.482L421.875 399.902L477.295 344.482L499.268 366.699L444.092 421.875ZM125 156.25H93.75V125H125V156.25ZM125 218.75H93.75V187.5H125V218.75ZM93.75 250H125V281.25H93.75V250ZM62.5 468.75H312.5V500H31.25V0H303.467L437.5 134.033V312.5H406.25V156.25H281.25V31.25H62.5V468.75ZM312.5 125H384.033L312.5 53.4668V125ZM250 156.25H156.25V125H250V156.25ZM250 218.75H156.25V187.5H250V218.75ZM156.25 250H250V281.25H156.25V250Z" fill="black"/>
</svg>
