<svg width="22" height="22" viewBox="0 0 22 22" fill="none" xmlns="http://www.w3.org/2000/svg">
<path d="M23.1806 25.125L14.4306 16.375C13.7361 16.9306 12.9375 17.3704 12.0347 17.6944C11.1319 18.0185 10.1713 18.1806 9.15278 18.1806C6.62963 18.1806 4.49444 17.3065 2.74722 15.5583C1 13.8102 0.125927 11.675 0.125001 9.15278C0.124075 6.63056 0.998149 4.49537 2.74722 2.74722C4.4963 0.999074 6.63148 0.125 9.15278 0.125C11.6741 0.125 13.8097 0.999074 15.5597 2.74722C17.3097 4.49537 18.1833 6.63056 18.1806 9.15278C18.1806 10.1713 18.0185 11.1319 17.6944 12.0347C17.3704 12.9375 16.9306 13.7361 16.375 14.4306L25.125 23.1806L23.1806 25.125ZM9.15278 15.4028C10.8889 15.4028 12.3648 14.7954 13.5806 13.5806C14.7963 12.3657 15.4037 10.8898 15.4028 9.15278C15.4019 7.41574 14.7944 5.94028 13.5806 4.72639C12.3667 3.5125 10.8907 2.90463 9.15278 2.90278C7.41482 2.90093 5.93935 3.5088 4.72639 4.72639C3.51343 5.94398 2.90556 7.41944 2.90278 9.15278C2.9 10.8861 3.50787 12.362 4.72639 13.5806C5.94491 14.7991 7.42037 15.4065 9.15278 15.4028Z" fill="white"/>
</svg>
